<?xml version="1.0" encoding="UTF-8"?>
<svg version="1.1" xmlns="http://www.w3.org/2000/svg" width="1024" height="1024">
<path d="M0 0 C337.92 0 675.84 0 1024 0 C1024 337.92 1024 675.84 1024 1024 C686.08 1024 348.16 1024 0 1024 C0 686.08 0 348.16 0 0 Z " fill="#FDFDFE" transform="translate(0,0)"/>
<path d="M0 0 C1.09920273 0.00222061 2.19840546 0.00444122 3.33091736 0.00672913 C4.57212845 0.00680466 5.81333954 0.00688019 7.09216309 0.00695801 C8.45682311 0.01206541 9.82148274 0.01728142 11.18614197 0.02259827 C12.57476755 0.02446251 13.96339379 0.02588638 15.35202026 0.02688599 C19.01319686 0.03071065 22.67433402 0.04054048 26.335495 0.05158997 C30.06890835 0.06180519 33.80232805 0.06638384 37.53575134 0.07142639 C44.86584748 0.08216281 52.19591108 0.0992386 59.52598572 0.12025452 C63.18744155 8.71010848 66.55443844 17.38494008 69.78770447 26.14369202 C70.29146086 27.50270967 70.79543985 28.86164484 71.29962158 30.22050476 C72.37655293 33.12439891 73.45199591 36.02883801 74.52622986 38.93373108 C76.24834847 43.5905495 77.97383561 48.24611547 79.69981384 52.90150452 C81.80932166 58.59198793 83.91807766 64.28274876 86.02583504 69.97388077 C89.71455766 79.93351133 93.40920237 89.89093031 97.10801697 99.84681702 C97.37384205 100.56233294 97.63966713 101.27784885 97.91354752 102.01504707 C99.25028932 105.61302779 100.58714438 109.21096642 101.92405701 112.80888367 C104.34572107 119.32623446 106.76649341 125.84391647 109.18729019 132.36158943 C109.99803826 134.54441038 110.80880892 136.72722294 111.61958313 138.91003418 C115.22257953 148.61033651 118.82480868 158.31092358 122.42675018 168.01161766 C136.93806115 207.09364259 136.93806115 207.09364259 151.47972107 246.16438293 C152.62921912 249.24933861 153.77832534 252.33443999 154.92735291 255.41957092 C158.30184976 264.47853806 161.6801182 273.5360531 165.07011414 282.5892334 C166.59248627 286.65595541 168.11247041 290.72356769 169.63212585 294.79130554 C170.34629253 296.70091636 171.06164256 298.61008509 171.77824402 300.51878357 C172.75305384 303.11533298 173.72395046 305.713313 174.69395447 308.31166077 C174.98351517 309.07973053 175.27307587 309.84780029 175.57141113 310.6391449 C177.52598572 315.89243106 177.52598572 315.89243106 177.52598572 318.12025452 C154.09598572 318.12025452 130.66598572 318.12025452 106.52598572 318.12025452 C98.27598572 293.80775452 98.27598572 293.80775452 95.69688416 286.20106506 C95.00980337 284.17800264 94.32263459 282.1549701 93.63536072 280.13197327 C93.1154657 278.59700195 93.1154657 278.59700195 92.58506775 277.03102112 C90.56371342 271.08531933 88.46546644 265.17836049 86.2565155 259.29953003 C85.52598572 257.12025452 85.52598572 257.12025452 85.52598572 255.12025452 C47.90598572 255.12025452 10.28598572 255.12025452 -28.47401428 255.12025452 C-29.46401428 258.75025452 -30.45401428 262.38025452 -31.47401428 266.12025452 C-32.07940927 268.0632066 -32.70280441 270.00084201 -33.35926819 271.92713928 C-33.69616669 272.92089066 -34.03306519 273.91464203 -34.38017273 274.93850708 C-34.73340607 275.9691478 -35.0866394 276.99978851 -35.45057678 278.06166077 C-35.82129303 279.15115524 -36.19200928 280.24064972 -36.57395935 281.36315918 C-37.35059716 283.64348495 -38.12882493 285.92326977 -38.90858459 288.20252991 C-40.10598886 291.70314471 -41.29820495 295.20549451 -42.48963928 298.70814514 C-43.24715204 300.93025256 -44.00495404 303.15226139 -44.76307678 305.37416077 C-45.12035858 306.42301956 -45.47764038 307.47187836 -45.8457489 308.55252075 C-46.17634308 309.51790268 -46.50693726 310.48328461 -46.84754944 311.47792053 C-47.13828339 312.32854568 -47.42901733 313.17917084 -47.7285614 314.05557251 C-48.47401428 316.12025452 -48.47401428 316.12025452 -49.47401428 318.12025452 C-72.90401428 318.12025452 -96.33401428 318.12025452 -120.47401428 318.12025452 C-118.67768511 312.13249062 -116.89650402 306.27140593 -114.74354553 300.42494202 C-114.48069763 299.70463303 -114.21784973 298.98432404 -113.94703674 298.2421875 C-113.06355332 295.82529871 -112.17526578 293.4102107 -111.28651428 290.99525452 C-110.81307083 289.70438431 -110.81307083 289.70438431 -110.33006287 288.38743591 C-103.13944883 268.78439721 -95.78709445 249.24166223 -88.44320393 229.69569302 C-81.70062455 211.74937342 -74.99576008 193.78985454 -68.34901428 175.80775452 C-61.42146313 157.06701894 -54.46137924 138.33877442 -47.47401428 119.62025452 C-40.26128404 100.29621882 -33.0715968 80.96386105 -25.91151428 61.62025452 C-25.08169136 59.37912086 -24.25185754 57.13799124 -23.42201233 54.89686584 C-20.0614831 45.81989632 -16.70257977 36.74233964 -13.35223389 27.66160583 C-12.11504009 24.30953914 -10.87583595 20.95821818 -9.63615417 17.60707092 C-9.07594226 16.09101165 -8.51673517 14.57458064 -7.95860291 13.05775452 C-7.21227405 11.02949915 -6.46270435 9.00247192 -5.71229553 6.97572327 C-5.09414978 5.29966003 -5.09414978 5.29966003 -4.46351624 3.58973694 C-3.08522649 0.14996373 -3.08522649 0.14996373 0 0 Z " fill="#000000" transform="translate(659.4740142822266,338.87974548339844)"/>
<path d="M0 0 C1.86816406 0.02270508 1.86816406 0.02270508 4 1 C5.25081135 3.23267889 6.19084535 5.2687564 7.109375 7.63671875 C7.39331619 8.33168457 7.67725739 9.02665039 7.96980286 9.74267578 C8.58623779 11.25665855 9.19563216 12.77352236 9.79885864 14.29281616 C10.75814652 16.70801046 11.73559297 19.11508374 12.71850586 21.52075195 C14.10553965 24.91888763 15.4858197 28.3196419 16.86083984 31.72265625 C20.03608001 39.56952878 23.2673768 47.39275773 26.5291748 55.20401001 C27.54248314 57.63939154 28.54350373 60.07957422 29.54394531 62.52026367 C34.82248474 75.27159417 39.3520189 85.41401092 52.71200562 91.04347229 C53.58177032 91.40037643 54.45153503 91.75728058 55.34765625 92.125 C56.26479401 92.50893417 57.18193176 92.89286835 58.12686157 93.28843689 C60.08826809 94.10847005 62.05118829 94.92489048 64.01547241 95.73800659 C67.07542049 97.0053513 70.13067172 98.28343157 73.18481445 99.56469727 C81.4593585 103.03356706 89.74200403 106.48256924 98.03450012 109.90829468 C100.04826117 110.74232548 102.05965263 111.58176968 104.07006836 112.42382812 C106.42543045 113.40940179 108.78544471 114.38395366 111.15063477 115.34570312 C112.17729248 115.77689453 113.2039502 116.20808594 114.26171875 116.65234375 C115.57595825 117.19362915 115.57595825 117.19362915 116.91674805 117.74584961 C119.33848303 119.2037721 120.00987193 120.39297185 121 123 C114.8002463 127.17909323 108.39630865 130.17282017 101.51571655 133.0763855 C99.57753994 133.89504652 97.64343429 134.72270638 95.71020508 135.55297852 C92.93639248 136.74417445 90.16171287 137.93330531 87.38623047 139.12060547 C80.55427331 142.04589895 73.73091472 144.99037486 66.92034912 147.96514893 C65.44790557 148.60636201 63.97401246 149.24425806 62.49859619 149.87860107 C41.34820773 158.97409503 35.14608107 168.52569558 26.53863525 189.48077393 C25.36047453 192.34784799 24.17150049 195.21023195 22.97998047 198.07177734 C19.66125205 206.05510822 16.36722885 214.0475251 13.16036987 222.07652283 C12.07088358 224.8040505 10.97231222 227.52788188 9.87384033 230.25180054 C9.13875074 232.09060298 8.42148839 233.93650006 7.70458984 235.7824707 C7.26840332 236.8674585 6.8322168 237.95244629 6.3828125 239.0703125 C6.01559082 240.00633301 5.64836914 240.94235352 5.27001953 241.90673828 C4 244 4 244 1.92062378 244.63082886 C0.96991501 244.81356857 0.96991501 244.81356857 0 245 C-3.34954773 238.50054645 -6.37381195 231.9511728 -9.109375 225.171875 C-9.66603851 223.80642548 -9.66603851 223.80642548 -10.23394775 222.41339111 C-11.40967985 219.52708869 -12.57998579 216.6386243 -13.75 213.75 C-14.51786046 211.86182918 -15.28608742 209.97380737 -16.0546875 208.0859375 C-16.43475952 207.1515686 -16.81483154 206.21719971 -17.2064209 205.2545166 C-17.97508219 203.36602689 -18.74469508 201.47792422 -19.51525879 199.59020996 C-21.49908254 194.72356066 -23.45667121 189.84871548 -25.37304688 184.95507812 C-25.76381409 183.96969055 -26.1545813 182.98430298 -26.55718994 181.96905518 C-27.29567556 180.10602607 -28.02503907 178.23934226 -28.74310303 176.36834717 C-35.02391696 160.63030577 -45.6319826 155.94016583 -60.4375 149.375 C-61.817166 148.75823754 -63.19663951 148.14104432 -64.57592773 147.5234375 C-68.71339164 145.67347767 -72.85613739 143.83557238 -77 142 C-78.22038628 141.45867841 -79.44076424 140.91733807 -80.66113281 140.37597656 C-83.96021775 138.9141907 -87.26096861 137.45625075 -90.5625 136 C-91.58013428 135.54979492 -92.59776855 135.09958984 -93.64624023 134.63574219 C-97.94625627 132.74201356 -102.24615259 130.87855344 -106.62109375 129.1640625 C-107.29003662 128.89722656 -107.95897949 128.63039063 -108.64819336 128.35546875 C-110.33178062 127.69135628 -112.02482325 127.05134077 -113.71875 126.4140625 C-116 125 -116 125 -116.64257812 122.41162109 C-116.76052734 121.61578613 -116.87847656 120.81995117 -117 120 C-108.88882509 115.64968973 -100.4491578 112.24667984 -91.91461182 108.84005737 C-87.8002477 107.19565333 -83.69371708 105.53186103 -79.5859375 103.87109375 C-77.94762153 103.20939742 -76.30927564 102.54777516 -74.67089844 101.88623047 C-73.8843689 101.56853699 -73.09783936 101.25084351 -72.28747559 100.92352295 C-70.81607927 100.32947584 -69.34449604 99.73589137 -67.87268066 99.1428833 C-63.61543109 97.42688939 -59.36802688 95.68846238 -55.125 93.9375 C-54.08794922 93.52161621 -53.05089844 93.10573242 -51.98242188 92.67724609 C-31.89914223 84.31594774 -26.90456388 62.47578734 -19 43.6875 C-18.14109706 41.65670132 -17.28172397 39.62610143 -16.421875 37.59570312 C-13.14208398 29.84451478 -9.87048122 22.09001173 -6.62890625 14.32275391 C-6.25846191 13.4370723 -5.88801758 12.55139069 -5.50634766 11.63887024 C-4.8098583 9.97276645 -4.11541937 8.30580356 -3.42333984 6.63786316 C-1.11181355 1.11181355 -1.11181355 1.11181355 0 0 Z " fill="#000000" transform="translate(257,477)"/>
<path d="M0 0 C20.79 0 41.58 0 63 0 C63 77.55 63 155.1 63 235 C42.21 235 21.42 235 0 235 C0 157.45 0 79.9 0 0 Z " fill="#000000" transform="translate(879,422)"/>
<path d="M0 0 C1.78808594 0.04125977 1.78808594 0.04125977 4 1 C5.33840032 3.46031726 6.38178663 5.74612015 7.390625 8.33984375 C7.69643997 9.08958466 8.00225494 9.83932556 8.31733704 10.61178589 C8.9702017 12.21713785 9.61616728 13.82530951 10.25588989 15.4359436 C11.25000895 17.93752251 12.262462 20.43088296 13.28100586 22.92260742 C14.60618698 26.16654474 15.92592584 29.41257768 17.23974609 32.66113281 C19.2945574 37.73466318 21.38517658 42.79019297 23.5625 47.8125 C23.83545898 48.4717749 24.10841797 49.1310498 24.38964844 49.81030273 C28.36290476 58.90015498 33.32054641 62.65237118 42.42089844 66.32421875 C44.25442871 67.02998047 44.25442871 67.02998047 46.125 67.75 C47.40212231 68.25983123 48.67847959 68.77158263 49.95410156 69.28515625 C55.97755447 71.69746415 62.0347933 74.02008119 68.10214233 76.31939697 C70.69841325 77.30461436 73.29116931 78.29893709 75.88421631 79.29260254 C77.72640876 79.99105556 79.57632888 80.66901515 81.42626953 81.34667969 C83.09471924 81.97944824 83.09471924 81.97944824 84.796875 82.625 C85.78010742 82.98851562 86.76333984 83.35203125 87.77636719 83.7265625 C90 85 90 85 90.82519531 87.1484375 C90.88288086 87.75945312 90.94056641 88.37046875 91 89 C82.21485311 93.72221994 73.01556705 97.2952884 63.75 100.9375 C58.52715362 102.99756705 53.30996507 105.0707195 48.10083008 107.16522217 C46.06811855 107.97293267 44.02669845 108.75385959 41.98242188 109.53173828 C30.4931321 114.0824751 26.65415818 118.74125971 21.76269531 129.89916992 C21.04484863 131.58876831 21.04484863 131.58876831 20.3125 133.3125 C19.55018066 135.06687378 19.55018066 135.06687378 18.77246094 136.85668945 C17.16667695 140.56491978 15.58090973 144.28113125 14 148 C13.45964382 149.2666746 12.91911661 150.53327624 12.37841797 151.79980469 C9.22623981 159.18896315 6.10073014 166.58910712 3 174 C1.68 174 0.36 174 -1 174 C-1.23945847 173.44591461 -1.47891693 172.89182922 -1.72563171 172.32095337 C-4.23710858 166.51115819 -6.75256898 160.70309937 -9.27026367 154.89599609 C-10.20714199 152.73367124 -11.14303181 150.5709178 -12.07788086 148.40771484 C-13.42817484 145.28367468 -14.78211374 142.16123538 -16.13671875 139.0390625 C-16.54838791 138.08448151 -16.96005707 137.12990051 -17.38420105 136.14639282 C-18.56891763 133.42120915 -19.77815251 130.70871815 -21 128 C-21.3973233 127.09755554 -21.79464661 126.19511108 -22.20401001 125.26531982 C-26.2000822 116.64398248 -31.05997515 112.9850857 -39.79296875 109.51171875 C-40.53317261 109.20722809 -41.27337646 108.90273743 -42.03601074 108.58901978 C-43.60794439 107.94394932 -45.18188399 107.30374822 -46.75765991 106.66812134 C-49.20398949 105.68084526 -51.64419146 104.67964803 -54.08325195 103.67456055 C-60.89448048 100.87226965 -67.71940043 98.10640136 -74.5625 95.3828125 C-75.45428955 95.02227783 -76.3460791 94.66174316 -77.26489258 94.2902832 C-78.83211187 93.6577413 -80.40465261 93.03816224 -81.9831543 92.43432617 C-84.01171875 91.61328125 -84.01171875 91.61328125 -87 90 C-87.68676758 87.89916992 -87.68676758 87.89916992 -88 86 C-77.79287661 80.35887199 -66.75494858 76.60077367 -55.86767578 72.51123047 C-50.22611295 70.38760837 -44.60276744 68.22399929 -39 66 C-37.93265625 65.58234375 -36.8653125 65.1646875 -35.765625 64.734375 C-25.5079407 60.25047707 -21.97235997 50.33196447 -17.890625 40.5078125 C-17.21129913 38.90617752 -17.21129913 38.90617752 -16.51824951 37.27218628 C-15.08678289 33.89339446 -13.66778753 30.50955164 -12.25 27.125 C-10.81577771 23.71998416 -9.37893967 20.31610494 -7.93890381 16.9135437 C-7.04689424 14.80394808 -6.15861437 12.69277067 -5.2744751 10.5798645 C-4.87355652 9.62812347 -4.47263794 8.67638245 -4.05957031 7.69580078 C-3.70904602 6.85912872 -3.35852173 6.02245667 -2.99737549 5.16043091 C-2 3 -2 3 0 0 Z " fill="#010101" transform="translate(343,244)"/>
<path d="M0 0 C0.66 0 1.32 0 2 0 C4.85597918 8.24937331 7.70985788 16.49947216 10.5625 24.75 C11.20351654 26.60393875 11.20351654 26.60393875 11.85748291 28.49533081 C18.35184222 47.28352962 24.80352579 66.08584217 31.18969727 84.91113281 C31.75913432 86.5879392 32.32870952 88.26469868 32.8984375 89.94140625 C33.16464401 90.72562958 33.43085052 91.50985291 33.7051239 92.31784058 C35.77138392 98.38291694 37.93022537 104.41105404 40.13916016 110.42553711 C41 113 41 113 41 115 C14.6 115 -11.8 115 -39 115 C-37.67500904 109.03754069 -36.30804297 103.57675013 -34.26171875 97.89453125 C-33.98839218 97.12045425 -33.71506561 96.34637726 -33.43345642 95.54884338 C-32.83646378 93.85847229 -32.23733019 92.16885612 -31.6362915 90.47991943 C-29.96504022 85.78138648 -28.31157366 81.07662877 -26.66015625 76.37109375 C-26.29940002 75.34336853 -25.9386438 74.31564331 -25.56695557 73.2567749 C-22.44316031 64.32750051 -19.39787912 55.37264837 -16.37109375 46.41015625 C-16.01366498 45.35212642 -16.01366498 45.35212642 -15.64901543 44.27272224 C-13.2573155 37.1913985 -10.87088063 30.10831707 -8.49052143 23.02317333 C-7.59542513 20.36071941 -6.69807872 17.69902737 -5.80026436 15.03748894 C-5.17524099 13.18162939 -4.55352478 11.32465709 -3.93186951 9.46766663 C-3.55941605 8.36378098 -3.18696259 7.25989532 -2.80322266 6.12255859 C-2.4776236 5.15305267 -2.15202454 4.18354675 -1.81655884 3.18466187 C-1 1 -1 1 0 0 Z " fill="#FBFBFC" transform="translate(687,426)"/>
<path d="M0 0 C1.80664062 0.05371094 1.80664062 0.05371094 4 1 C5.2428399 3.4036922 6.18751009 5.61136536 7.09375 8.140625 C7.3671521 8.85982117 7.6405542 9.57901733 7.92224121 10.32000732 C8.79648854 12.62468801 9.6496475 14.93640669 10.5 17.25 C11.35254127 19.54834332 12.20967554 21.84462549 13.07775879 24.137146 C13.61721928 25.56377141 14.14757986 26.99388189 14.6673584 28.42779541 C16.61420241 33.60567672 18.71062688 37.697662 23.609375 40.484375 C25.16398437 41.11085938 25.16398437 41.11085938 26.75 41.75 C27.96558594 42.24757813 29.18117188 42.74515625 30.43359375 43.2578125 C34.00872124 44.64645085 37.61253929 45.94753238 41.22265625 47.2421875 C42.30772461 47.63567383 43.39279297 48.02916016 44.51074219 48.43457031 C46.6972559 49.22290519 48.88935145 49.99594048 51.08691406 50.75292969 C52.09592773 51.11547852 53.10494141 51.47802734 54.14453125 51.8515625 C55.05565674 52.16947754 55.96678223 52.48739258 56.90551758 52.81494141 C59 54 59 54 59.8034668 56.13427734 C59.86832275 56.74996582 59.93317871 57.3656543 60 58 C59.00145996 58.4031543 58.00291992 58.80630859 56.97412109 59.22167969 C53.24772241 60.728264 49.52497094 62.24368695 45.80322266 63.76171875 C44.19612191 64.4158052 42.58805962 65.06753453 40.97900391 65.71679688 C38.65787181 66.65387311 36.3404026 67.59955014 34.0234375 68.546875 C33.31069672 68.83246277 32.59795593 69.11805054 31.86361694 69.41229248 C25.27081258 72.12585706 20.0920103 74.65933591 16.9609375 81.390625 C16.2198877 82.98100586 16.2198877 82.98100586 15.46386719 84.60351562 C13.0252052 90.26173204 10.78532273 95.98043718 8.625 101.75 C8.17511719 102.9359375 7.72523438 104.121875 7.26171875 105.34375 C6.16883947 108.22709108 5.08170664 111.11245314 4 114 C2.68 114 1.36 114 0 114 C-0.37809814 112.99622314 -0.75619629 111.99244629 -1.14575195 110.95825195 C-2.55542282 107.21974192 -3.97146556 103.48367219 -5.3894043 99.74829102 C-6.00116082 98.1340369 -6.61120829 96.519134 -7.21948242 94.90356445 C-8.09621321 92.57589081 -8.97914861 90.25065188 -9.86328125 87.92578125 C-10.13215652 87.20787918 -10.4010318 86.48997711 -10.67805481 85.75032043 C-13.64993075 77.63515394 -13.64993075 77.63515394 -20.2109375 72.58203125 C-21.09749023 72.17033691 -21.98404297 71.75864258 -22.89746094 71.33447266 C-29.0951379 68.66871075 -35.34806967 66.15871478 -41.625 63.6875 C-43.02490091 63.13256825 -44.4246417 62.57723241 -45.82421875 62.02148438 C-49.2143162 60.67633491 -52.60653526 59.33663564 -56 58 C-55.95996094 56.19555664 -55.95996094 56.19555664 -55 54 C-52.52359818 52.74436234 -50.24195917 51.7862431 -47.640625 50.87109375 C-46.89923279 50.59531998 -46.15784058 50.3195462 -45.39398193 50.03541565 C-43.01788443 49.15438845 -40.63464326 48.29509692 -38.25 47.4375 C-35.88118059 46.5726738 -33.51413971 45.70334591 -31.14886475 44.82887268 C-29.67649952 44.28590343 -28.20184663 43.74908595 -26.72467041 43.21934509 C-19.82071861 40.85452024 -19.82071861 40.85452024 -14.62231445 36.03369141 C-11.17008345 28.60065815 -8.13500526 21.01914408 -5.1875 13.375 C-4.6807778 12.07144375 -4.17361903 10.76805712 -3.66601562 9.46484375 C-2.43972663 6.31152919 -1.21783314 3.1565877 0 0 Z " fill="#010101" transform="translate(130,358)"/>
<path d="M0 0 C7.51250296 5.41101553 13.44585566 13.33385897 15.45703125 22.4921875 C16.65255168 32.1596675 14.2465749 40.77982689 8.76953125 48.8046875 C3.23286493 55.62765004 -4.985999 60.19162011 -13.48046875 62.1796875 C-23.9082485 63.24374666 -33.71314093 61.66144762 -42.41796875 55.3671875 C-49.83357512 49.00314962 -54.97382598 41.35803683 -55.7890625 31.5234375 C-56.18589881 21.22974422 -54.08924231 14.21414677 -47.54296875 6.2421875 C-34.79909767 -7.17797525 -15.81474141 -9.37709706 0 0 Z " fill="#010101" transform="translate(930.54296875,331.5078125)"/>
</svg>
