<?xml version="1.0" standalone="no"?>
<!DOCTYPE svg PUBLIC "-//W3C//DTD SVG 20010904//EN"
 "http://www.w3.org/TR/2001/REC-SVG-20010904/DTD/svg10.dtd">
<svg version="1.0" xmlns="http://www.w3.org/2000/svg"
 width="300.000000pt" height="334.000000pt" viewBox="0 0 300.000000 334.000000"
 preserveAspectRatio="xMidYMid meet">
<metadata>
Created by potrace 1.10, written by Peter Selinger 2001-2011
</metadata>
<g transform="translate(0.000000,334.000000) scale(0.100000,-0.100000)"
fill="#000000" stroke="none">
<path d="M834 3207 c-3 -8 -4 -171 -2 -363 l3 -349 58 -104 57 -104 0 -258 0
-259 -64 0 -64 0 -159 248 c-106 163 -171 255 -193 270 -32 21 -42 22 -179 20
l-146 -3 -3 -1097 -2 -1098 40 0 c76 0 159 63 185 140 l10 31 493 2 492 2 0
-53 c0 -48 4 -58 34 -88 29 -29 41 -34 81 -34 40 0 52 5 81 34 19 19 34 45 35
58 0 12 2 35 2 51 l2 27 492 3 493 2 5 -27 c17 -75 107 -148 185 -148 l40 0 2
467 3 468 41 -3 c26 -2 45 2 52 11 9 11 12 177 10 673 l-3 659 -659 3 c-486 1
-662 -1 -673 -9 -11 -10 -13 -67 -13 -308 l1 -296 -170 -3 -171 -2 0 256 0
256 60 112 59 112 1 347 c1 190 -1 351 -5 357 -4 6 -96 10 -256 10 -200 0
-251 -3 -255 -13z m458 -364 l-3 -318 -46 -90 c-25 -49 -49 -94 -53 -99 -5 -4
-50 -9 -101 -9 l-92 -1 -53 100 -54 99 0 318 0 317 203 0 202 0 -3 -317z
m1568 -1128 l0 -615 -615 0 -615 0 0 615 0 615 615 0 615 0 0 -615z m-1689
305 l0 -245 -81 -3 -80 -3 0 251 0 251 80 -3 81 -3 0 -245z m-715 196 c16 -18
60 -82 99 -142 38 -60 102 -159 142 -221 l72 -112 3 -320 3 -321 -287 0 -288
0 0 575 0 575 114 0 114 0 28 -34z m1115 -808 l0 -303 -371 -3 -370 -2 0 303
c0 167 2 306 4 308 2 2 169 3 370 2 l367 -2 0 -303z m1180 -712 l0 -346 -1276
-3 -1275 -2 0 347 0 348 1273 2 c699 2 1273 3 1275 2 1 -1 3 -157 3 -348z
m-2441 -426 c0 -31 -101 -118 -114 -98 -1 1 0 28 2 58 l4 55 54 1 c44 0 54 -3
54 -16z m1228 -19 c6 -62 -49 -102 -97 -72 -12 8 -33 95 -25 103 1 2 29 3 61
2 58 -1 58 -1 61 -33z m1215 -24 c2 -71 -10 -73 -69 -13 -60 60 -58 73 12 71
l56 -2 1 -56z"/>
<path d="M1855 2098 c-3 -7 -4 -184 -3 -393 l3 -380 390 0 390 0 0 390 0 390
-388 3 c-305 2 -389 0 -392 -10z m725 -386 l0 -337 -335 0 -335 0 0 340 0 340
335 -3 335 -3 0 -337z"/>
<path d="M1996 1995 c-8 -21 -8 -538 0 -559 5 -14 37 -16 249 -16 212 0 244 2
249 16 9 24 7 547 -3 562 -5 8 -17 12 -27 10 -18 -3 -19 -18 -22 -266 l-2
-262 -45 0 -45 0 -2 263 -3 262 -25 0 -25 0 -3 -262 -2 -263 -45 0 -45 0 -2
263 -3 262 -25 0 -25 0 -3 -262 -2 -263 -45 0 -45 0 -2 263 c-3 258 -3 262
-24 265 -13 2 -24 -4 -28 -13z"/>
<path d="M1695 1878 c-3 -8 -4 -86 -3 -173 l3 -160 25 0 25 0 0 170 c0 169 0
170 -23 173 -12 2 -24 -3 -27 -10z"/>
<path d="M354 915 c-3 -8 -3 -22 0 -30 5 -13 27 -15 138 -13 l133 3 0 25 0 25
-133 3 c-111 2 -133 0 -138 -13z"/>
<path d="M1336 914 c-14 -36 11 -44 138 -44 128 0 150 6 144 36 -3 17 -15 19
-139 22 -120 2 -137 0 -143 -14z"/>
<path d="M2324 915 c-3 -8 -3 -22 0 -30 5 -13 27 -15 138 -13 l133 3 0 25 0
25 -133 3 c-111 2 -133 0 -138 -13z"/>
<path d="M1465 722 c-124 -3 -142 -9 -124 -44 9 -16 24 -18 132 -18 122 0 147
6 147 37 0 23 -33 28 -155 25z"/>
<path d="M354 705 c-4 -8 -1 -22 6 -30 11 -13 36 -15 139 -13 l126 3 3 28 3
27 -136 0 c-112 0 -137 -3 -141 -15z"/>
<path d="M2324 705 c-16 -39 0 -45 128 -45 130 0 152 6 146 36 -3 17 -15 19
-136 22 -111 2 -133 0 -138 -13z"/>
<path d="M360 504 c-10 -11 -11 -21 -4 -31 8 -12 33 -15 132 -15 67 1 127 1
133 1 6 1 9 13 7 29 l-3 27 -126 3 c-106 2 -128 0 -139 -14z"/>
<path d="M1346 505 c-14 -14 -12 -44 3 -45 3 -1 62 -1 131 -2 103 -1 126 2
134 15 7 11 6 20 -3 31 -19 23 -242 23 -265 1z"/>
<path d="M2329 504 c-8 -10 -10 -21 -3 -30 7 -12 34 -15 129 -15 66 0 126 0
133 0 18 1 15 48 -4 55 -9 3 -66 6 -129 6 -90 0 -115 -3 -126 -16z"/>
</g>
</svg>
