<?xml version="1.0" encoding="UTF-8"?>
<svg version="1.1" xmlns="http://www.w3.org/2000/svg" width="533" height="316">
    <path d="M0 0 C1.0219043 -0.00511093 2.04380859 -0.01022186 3.09667969 -0.01548767 C6.4670196 -0.02936128 9.8371545 -0.02842847 13.20751953 -0.02612305 C15.55632605 -0.03001133 17.90513186 -0.03434627 20.25393677 -0.03910828 C25.17484823 -0.0465658 30.09568793 -0.04628266 35.01660156 -0.04101562 C41.31354957 -0.03522313 47.61020323 -0.05214922 53.90710258 -0.0753603 C58.75763661 -0.0901134 63.60810001 -0.09096715 68.4586525 -0.08785057 C70.7798127 -0.08836303 73.10097693 -0.09358667 75.42211533 -0.10366249 C78.67222807 -0.11603916 81.92177094 -0.10922728 85.171875 -0.09765625 C86.12486481 -0.10529999 87.07785461 -0.11294373 88.0597229 -0.12081909 C94.58354286 -0.06964626 100.45822434 0.67777504 105.73876953 4.88793945 C106.18478516 5.44868164 106.63080078 6.00942383 107.09033203 6.5871582 C107.78255859 7.41666992 107.78255859 7.41666992 108.48876953 8.26293945 C111.94956648 13.93908731 111.99885149 19.47363535 111.95825195 25.90429688 C111.9601503 26.85620407 111.96204865 27.80811127 111.96400452 28.78886414 C111.96769809 31.92353651 111.95702987 35.05797531 111.94580078 38.19262695 C111.94460827 40.37404859 111.94415597 42.55547075 111.94441223 44.7368927 C111.94284992 49.30216703 111.93457799 53.86736265 111.92114258 58.43261719 C111.90412294 64.29053195 111.90032926 70.14836052 111.90108776 76.00629711 C111.90081619 80.50748012 111.89533759 85.00864421 111.88808632 89.50982094 C111.88490028 91.67043222 111.88293239 93.83104566 111.88219261 95.99165916 C111.8800301 99.00554453 111.87128857 102.01933753 111.8605957 105.03320312 C111.86104889 105.9293634 111.86150208 106.82552368 111.86196899 107.74884033 C111.85770401 108.56888046 111.85343903 109.38892059 111.8490448 110.23381042 C111.84736896 110.94593783 111.84569311 111.65806524 111.84396648 112.39177227 C111.71533203 114.2746582 111.71533203 114.2746582 110.71533203 117.2746582 C120.61533203 117.2746582 130.51533203 117.2746582 140.71533203 117.2746582 C140.38533203 116.6146582 140.05533203 115.9546582 139.71533203 115.2746582 C139.60601044 112.16895806 139.55798644 109.08534281 139.55419922 105.97900391 C139.54923431 105.01459885 139.54426941 104.05019379 139.53915405 103.05656433 C139.52450671 99.85451553 139.51772516 96.65251631 139.51220703 93.45043945 C139.50645647 91.22804258 139.50069872 89.00564573 139.49493408 86.7832489 C139.48441593 82.11672738 139.478579 77.45022312 139.47509766 72.78369141 C139.46961972 66.80939296 139.44560996 60.83532321 139.4171257 54.86109638 C139.39848136 50.26709838 139.3932927 45.67315518 139.39176178 41.07912254 C139.38873738 38.8771458 139.38071607 36.67516998 139.3675766 34.47323036 C139.35048343 31.38773986 139.35240484 28.30280406 139.35888672 25.21728516 C139.34967194 24.31052032 139.34045715 23.40375549 139.33096313 22.46951294 C139.37577712 15.64461818 140.54069657 10.93254599 144.96533203 5.5246582 C151.38326551 0.27362172 157.10594671 -0.16452746 165.11352539 -0.11352539 C166.13557571 -0.11878235 167.15762604 -0.12403931 168.21064758 -0.12945557 C171.57564764 -0.14261575 174.94017124 -0.13393065 178.30517578 -0.1237793 C180.65255321 -0.12580132 182.99993002 -0.12871384 185.3473053 -0.13247681 C190.26227816 -0.13689491 195.17708722 -0.13048603 200.09204102 -0.11645508 C206.38113177 -0.09937317 212.66983813 -0.10920165 218.95891476 -0.12717247 C223.80516944 -0.13803209 228.65133356 -0.13455376 233.49759102 -0.12678909 C235.81595467 -0.12479263 238.13432664 -0.12722683 240.45268059 -0.13422775 C243.6979221 -0.14187684 246.94254825 -0.13018862 250.18774414 -0.11352539 C251.1391629 -0.11959808 252.09058167 -0.12567078 253.0708313 -0.13192749 C259.5936372 -0.07012122 265.42284435 0.70677206 270.73876953 4.8527832 C271.18478516 5.40450195 271.63080078 5.9562207 272.09033203 6.5246582 C272.78255859 7.33676758 272.78255859 7.33676758 273.48876953 8.1652832 C276.94769173 14.11374813 277.00110045 20.2378582 276.95825195 26.92602539 C276.9601503 27.86832504 276.96204865 28.81062469 276.96400452 29.78147888 C276.96769211 32.87824983 276.95703912 35.97478331 276.94580078 39.0715332 C276.94460801 41.22910535 276.94415602 43.38667803 276.94441223 45.54425049 C276.942851 50.05647044 276.93458678 54.56861065 276.92114258 59.08081055 C276.90411252 64.87031563 276.90032962 70.65973351 276.90108776 76.44926071 C276.90081621 80.89982946 276.89533812 85.35037907 276.88808632 89.80094147 C276.88490079 91.93643296 276.88293251 94.07192661 276.88219261 96.20742035 C276.88003015 99.18527445 276.87128906 102.16303505 276.8605957 105.14086914 C276.86127548 106.46872688 276.86127548 106.46872688 276.86196899 107.82341003 C276.8440952 111.21873379 276.79643432 114.03135134 275.71533203 117.2746582 C276.32095474 117.26799637 276.92657745 117.26133453 277.55055237 117.25447083 C283.92728292 117.18743687 290.30391135 117.14257925 296.6809082 117.10986328 C299.0520434 117.09489582 301.42315149 117.0745146 303.79418945 117.04833984 C328.72439282 116.78027314 350.54255412 118.99417149 369.54736328 136.95043945 C383.8689086 152.13084806 389.29313982 169.45332582 388.99267578 190.0480957 C388.31622933 208.56455528 379.19894553 224.24298093 366.15283203 236.8996582 C355.07189655 246.44345172 342.90113119 250.63543975 328.71533203 253.2746582 C328.38533203 255.9146582 328.05533203 258.5546582 327.71533203 261.2746582 C323.09533203 261.2746582 318.47533203 261.2746582 313.71533203 261.2746582 C313.71533203 258.6346582 313.71533203 255.9946582 313.71533203 253.2746582 C189.63533203 253.2746582 65.55533203 253.2746582 -62.28466797 253.2746582 C-62.28466797 255.9146582 -62.28466797 258.5546582 -62.28466797 261.2746582 C-66.90466797 261.2746582 -71.52466797 261.2746582 -76.28466797 261.2746582 C-76.28466797 258.6346582 -76.28466797 255.9946582 -76.28466797 253.2746582 C-77.46609375 253.14510742 -77.46609375 253.14510742 -78.67138672 253.01293945 C-96.06631419 250.76909674 -112.0591279 243.05879159 -123.28466797 229.2746582 C-135.75027125 212.61166905 -140.15429288 194.45651109 -137.89404297 173.68481445 C-135.45656283 160.04430057 -128.75692918 147.34688989 -119.28466797 137.2746582 C-118.64400391 136.58114258 -118.00333984 135.88762695 -117.34326172 135.1730957 C-103.27591987 121.34599309 -84.02909847 117.08959237 -65.00732422 117.17700195 C-63.84083847 117.1784169 -62.67435272 117.17983185 -61.47251892 117.18128967 C-57.764042 117.18686614 -54.0556265 117.19941436 -50.34716797 117.2121582 C-47.82568447 117.21717624 -45.30420002 117.22173862 -42.78271484 117.22583008 C-36.61667843 117.23682787 -30.45067759 117.25354255 -24.28466797 117.2746582 C-24.61466797 116.6146582 -24.94466797 115.9546582 -25.28466797 115.2746582 C-25.39395346 112.2047619 -25.44201208 109.15720862 -25.44580078 106.08666992 C-25.45324814 104.65710213 -25.45324814 104.65710213 -25.46084595 103.19865417 C-25.47549438 100.03387742 -25.48227543 96.86915085 -25.48779297 93.7043457 C-25.49354396 91.50676471 -25.4993017 89.30918374 -25.50506592 87.11160278 C-25.51558472 82.49635585 -25.52142106 77.88112638 -25.52490234 73.26586914 C-25.53037689 67.3611701 -25.55437906 61.45670284 -25.5828743 55.55207634 C-25.60153295 51.00865006 -25.60670809 46.46527913 -25.60823822 41.92181778 C-25.61125998 39.74578718 -25.61927235 37.56975745 -25.6324234 35.3937645 C-25.64954462 32.34200404 -25.64758823 29.29080314 -25.64111328 26.23901367 C-25.65032806 25.34519485 -25.65954285 24.45137604 -25.66903687 23.5304718 C-25.62656249 17.11557395 -24.61739905 11.65940526 -20.89013672 6.2512207 C-20.18824219 5.58219727 -20.18824219 5.58219727 -19.47216797 4.8996582 C-19.01197266 4.43817383 -18.55177734 3.97668945 -18.07763672 3.5012207 C-12.531962 -0.29255242 -6.43641839 -0.0166615 0 0 Z M-11.28466797 17.2746582 C-11.86912728 20.34236894 -11.82071591 23.36281026 -11.78637695 26.4777832 C-11.79177994 27.40828491 -11.79718292 28.33878662 -11.80274963 29.29748535 C-11.81525775 32.37353311 -11.79873178 35.44864873 -11.78076172 38.5246582 C-11.78091666 40.66170297 -11.78240479 42.79874803 -11.78517151 44.93579102 C-11.78655644 49.41475851 -11.77398146 53.89340615 -11.7512207 58.37231445 C-11.72283603 64.11598846 -11.72557226 69.8591309 -11.73831081 75.60284424 C-11.74526296 80.01575263 -11.73748398 84.42853798 -11.72505379 88.84143066 C-11.72053478 90.95934579 -11.7202064 93.0772741 -11.72411919 95.19519043 C-11.7270268 98.1542472 -11.71054561 101.11256923 -11.6887207 104.0715332 C-11.69322235 104.94853882 -11.697724 105.82554443 -11.70236206 106.72912598 C-11.66189852 110.02792252 -11.4914938 112.70469009 -10.36193848 115.81750488 C-6.79567758 118.31914773 -2.885905 117.82890107 1.35571289 117.79223633 C2.83902855 117.80275024 2.83902855 117.80275024 4.35231018 117.81347656 C7.62854916 117.83111412 10.90392767 117.81941212 14.18017578 117.8059082 C16.45317247 117.80860167 18.72616803 117.81248286 20.99916077 117.81750488 C25.7665604 117.82340794 30.53366053 117.81481154 35.30102539 117.79614258 C41.41585889 117.77336587 47.52998969 117.78646343 53.64479733 117.81043243 C58.33994348 117.82487946 63.03492278 117.82028915 67.73007393 117.80992126 C69.98475795 117.80725029 72.23945705 117.81053669 74.49412346 117.81983948 C77.64500984 117.82998526 80.79475534 117.81453007 83.94555664 117.79223633 C84.88023773 117.80033325 85.81491882 117.80843018 86.77792358 117.81677246 C90.51896267 117.76767314 93.00599995 117.67755684 96.29260254 115.81077576 C98.44166198 111.97992288 98.28137943 108.50573537 98.2487793 104.17919922 C98.25739487 103.26005737 98.26601044 102.34091553 98.27488708 101.3939209 C98.29759224 98.35518239 98.2907995 95.31736274 98.28173828 92.27856445 C98.28697206 90.16633326 98.29324764 88.05410442 98.30052185 85.94187927 C98.31093465 81.5142009 98.30635217 77.08684374 98.29174805 72.65917969 C98.27456434 66.98489516 98.29804631 61.31162359 98.33323765 55.63745213 C98.35519845 51.27509347 98.35377322 46.91297764 98.34547234 42.55058098 C98.344652 40.45859606 98.35153113 38.36659346 98.36624336 36.27466011 C98.38366335 33.34897755 98.36916739 30.42512081 98.34643555 27.49951172 C98.35812775 26.63545212 98.36981995 25.77139252 98.38186646 24.88114929 C98.31404239 20.59087906 98.08966752 18.77897818 95.45806885 15.23358154 C92.65789046 13.23363216 91.56263407 12.65744136 88.20043945 12.70703125 C87.33992477 12.70740891 86.4794101 12.70778656 85.59281921 12.70817566 C84.67805313 12.73398209 83.76328705 12.75978851 82.82080078 12.78637695 C81.39976799 12.79698906 81.39976799 12.79698906 79.95002747 12.80781555 C76.93348182 12.83573486 73.91881364 12.89846905 70.90283203 12.9621582 C68.85403077 12.98724424 66.80520033 13.01005688 64.75634766 13.03051758 C59.74195582 13.08555362 54.72896189 13.17180965 49.71533203 13.2746582 C49.66634766 14.55083008 49.61736328 15.82700195 49.56689453 17.1418457 C49.49187012 18.81113892 49.41632215 20.48040867 49.34033203 22.1496582 C49.29392578 23.41229492 49.29392578 23.41229492 49.24658203 24.70043945 C49.20791016 25.50610352 49.16923828 26.31176758 49.12939453 27.1418457 C49.09797363 27.88547363 49.06655273 28.62910156 49.03417969 29.39526367 C48.71533203 31.2746582 48.71533203 31.2746582 46.71533203 33.2746582 C43.74533203 33.2746582 40.77533203 33.2746582 37.71533203 33.2746582 C37.38533203 26.6746582 37.05533203 20.0746582 36.71533203 13.2746582 C30.52155707 13.18282299 24.33014387 13.10318587 18.13623047 13.05493164 C16.02937821 13.03481694 13.92258178 13.00752153 11.81591797 12.97290039 C8.78745756 12.92437652 5.75973525 12.90168804 2.73095703 12.8840332 C1.78915588 12.86338806 0.84735474 12.84274292 -0.12298584 12.82147217 C-1.44390228 12.82101898 -1.44390228 12.82101898 -2.79150391 12.82055664 C-3.56427673 12.81167419 -4.33704956 12.80279175 -5.13323975 12.79364014 C-8.37007618 13.51733465 -9.40127512 14.53455086 -11.28466797 17.2746582 Z M153.71533203 17.2746582 C153.13087272 20.34236894 153.17928409 23.36281026 153.21362305 26.4777832 C153.20822006 27.40828491 153.20281708 28.33878662 153.19725037 29.29748535 C153.18474225 32.37353311 153.20126822 35.44864873 153.21923828 38.5246582 C153.21908334 40.66170297 153.21759521 42.79874803 153.21482849 44.93579102 C153.21344356 49.41475851 153.22601854 53.89340615 153.2487793 58.37231445 C153.27716397 64.11598846 153.27442774 69.8591309 153.26168919 75.60284424 C153.25473704 80.01575263 153.26251602 84.42853798 153.27494621 88.84143066 C153.27946522 90.95934579 153.2797936 93.0772741 153.27588081 95.19519043 C153.2729732 98.1542472 153.28945439 101.11256923 153.3112793 104.0715332 C153.30677765 104.94853882 153.302276 105.82554443 153.29763794 106.72912598 C153.33809902 110.02772263 153.50906155 112.70538692 154.6370697 115.8184967 C158.20836992 118.3207746 162.12628158 117.82011062 166.37158203 117.77636719 C167.36206543 117.78177017 168.35254883 117.78717316 169.37304688 117.79273987 C172.65411056 117.80526907 175.93430396 117.78870783 179.21533203 117.77075195 C181.49072313 117.77090684 183.76611449 117.77239416 186.04150391 117.77516174 C190.81310674 117.77654762 195.58440968 117.76395584 200.35595703 117.74121094 C206.47976814 117.71282605 212.60308072 117.71556126 218.72692871 117.72830105 C223.42631303 117.73524793 228.12558162 117.72748023 232.82495117 117.71504402 C235.08324744 117.7105199 237.34155609 117.71020107 239.59985352 117.71410942 C242.7531898 117.71701189 245.90583317 117.70056041 249.05908203 117.67871094 C249.9973584 117.68321259 250.93563477 117.68771423 251.90234375 117.69235229 C252.76037598 117.68244766 253.6184082 117.67254303 254.50244141 117.66233826 C255.62072327 117.65869341 255.62072327 117.65869341 256.76159668 117.65497494 C259.26326979 117.16799591 260.12965785 116.22840721 261.71533203 114.2746582 C263.38591563 110.93349101 262.89007972 107.17349867 262.90820312 103.49804688 C262.91638062 102.58895065 262.92455811 101.67985443 262.9329834 100.74320984 C262.95785282 97.72635563 262.97435685 94.7095485 262.98876953 91.69262695 C262.99675505 90.14914802 262.99675505 90.14914802 263.00490189 88.57448769 C263.03163944 83.12876759 263.05101293 77.68307048 263.06542969 72.23730469 C263.0820844 66.60790952 263.12686763 60.979099 263.17780113 55.34992504 C263.21142945 51.02536839 263.22300227 46.7009513 263.22865677 42.37627602 C263.23538081 40.30100343 263.25063265 38.22574039 263.27454758 36.15059471 C263.30610872 33.2463937 263.30624949 30.34378007 263.29882812 27.43945312 C263.31523346 26.58160217 263.33163879 25.72375122 263.34854126 24.83990479 C263.30374255 20.55894289 263.08825671 18.77711966 260.46104431 15.23733521 C257.65883635 13.23427423 256.5655023 12.65739905 253.20043945 12.70703125 C252.33992477 12.70740891 251.4794101 12.70778656 250.59281921 12.70817566 C249.67805313 12.73398209 248.76328705 12.75978851 247.82080078 12.78637695 C246.39976799 12.79698906 246.39976799 12.79698906 244.95002747 12.80781555 C241.93348182 12.83573486 238.91881364 12.89846905 235.90283203 12.9621582 C233.85403077 12.98724424 231.80520033 13.01005688 229.75634766 13.03051758 C224.74195582 13.08555362 219.72896189 13.17180965 214.71533203 13.2746582 C214.67794922 14.55083008 214.64056641 15.82700195 214.60205078 17.1418457 C214.53640412 18.81114658 214.46995633 20.48041609 214.40283203 22.1496582 C214.38027344 22.99141602 214.35771484 23.83317383 214.33447266 24.70043945 C214.29902344 25.50610352 214.26357422 26.31176758 214.22705078 27.1418457 C214.2008667 27.88547363 214.17468262 28.62910156 214.14770508 29.39526367 C213.71533203 31.2746582 213.71533203 31.2746582 210.71533203 33.2746582 C205.36987749 33.60193093 205.36987749 33.60193093 202.71533203 32.2746582 C202.38533203 26.0046582 202.05533203 19.7346582 201.71533203 13.2746582 C195.52155707 13.18282299 189.33014387 13.10318587 183.13623047 13.05493164 C181.02937821 13.03481694 178.92258178 13.00752153 176.81591797 12.97290039 C173.78745756 12.92437652 170.75973525 12.90168804 167.73095703 12.8840332 C166.78915588 12.86338806 165.84735474 12.84274292 164.87701416 12.82147217 C163.55609772 12.82101898 163.55609772 12.82101898 162.20849609 12.82055664 C161.43572327 12.81167419 160.66295044 12.80279175 159.86676025 12.79364014 C156.62992382 13.51733465 155.59872488 14.53455086 153.71533203 17.2746582 Z M-112.28466797 150.2746582 C-122.22772474 163.17931161 -125.7058193 177.12990275 -124.28466797 193.2746582 C-121.70939995 207.84198752 -114.69789092 219.87744615 -103.28466797 229.2746582 C-93.08581759 236.33130403 -82.81500841 240.39066621 -70.3835001 240.40887928 C-69.69813389 240.41123151 -69.01276767 240.41358374 -68.30663279 240.41600725 C-66.00515153 240.42267551 -63.70372702 240.42223968 -61.40223694 240.42182922 C-59.73735434 240.42512921 -58.07247254 240.42885506 -56.40759176 240.4329707 C-51.8282785 240.44298364 -47.24897834 240.44670637 -42.66965568 240.44936001 C-37.73213703 240.4532652 -32.79462873 240.46284345 -27.8571167 240.47157288 C-15.93022066 240.49133206 -4.00332377 240.50140318 7.92358455 240.51030067 C13.54182083 240.51468479 19.16005617 240.52005131 24.7782917 240.52528954 C43.45784147 240.5423019 62.13739066 240.55679543 80.81694698 240.56403828 C85.6640161 240.56594814 90.5110852 240.56786847 95.3581543 240.56982422 C97.16520299 240.57054983 97.16520299 240.57054983 99.00875772 240.5712901 C118.51822142 240.57958801 138.02762376 240.60492087 157.53706067 240.6374049 C177.57240766 240.67049225 197.60772349 240.68848859 217.64309794 240.69168252 C228.88996693 240.69384615 240.13674645 240.70257324 251.38358879 240.72814369 C260.9633037 240.74987362 270.54290742 240.75788983 280.12264418 240.74817691 C285.00741802 240.74363878 289.89196255 240.74549015 294.77670479 240.76493835 C299.25600859 240.7826177 303.7349166 240.78153378 308.21422488 240.76604106 C309.82737386 240.76367221 311.4405506 240.76795073 313.05365729 240.77986971 C330.59620025 240.90137111 345.76967731 236.96239254 358.96533203 224.7121582 C370.11941253 212.89350286 375.24158175 199.19308147 375.13769531 183.04711914 C374.62355559 167.03149868 367.09176936 154.1967952 355.71533203 143.2746582 C341.72615496 131.87884016 326.76606814 129.9687905 309.33206177 130.01396179 C307.67381203 130.01093787 306.0155637 130.00704718 304.35731781 130.00236923 C299.81962178 129.99211158 295.28200497 129.99426534 290.74430251 129.99854982 C285.84303551 130.00102109 280.94178739 129.99199791 276.04052734 129.98451233 C266.4458985 129.97177461 256.85129766 129.96997047 247.25666179 129.97231259 C239.4566564 129.97409689 231.6566595 129.97234371 223.85665512 129.96808815 C222.74577948 129.96749296 221.63490383 129.96689777 220.49036529 129.96628455 C218.2334954 129.96507277 215.97662552 129.96385864 213.71975563 129.96264217 C192.56341538 129.95177027 171.40709108 129.95392751 150.25074993 129.96002702 C130.90515868 129.96519625 111.55961777 129.95393991 92.21403648 129.9349288 C72.33899908 129.91554744 52.4639855 129.9072949 32.58893859 129.91105205 C21.43500923 129.91296359 10.28112273 129.91048107 -0.87279892 129.89633751 C-10.36790187 129.88441899 -19.86293557 129.88302417 -29.35803948 129.89512768 C-34.20002774 129.90101292 -39.04188937 129.90212552 -43.88386917 129.89012527 C-48.32149325 129.8792552 -52.75888514 129.88238321 -57.19649841 129.89638696 C-58.79667149 129.89903077 -60.39686283 129.89667732 -61.99701796 129.8886511 C-81.93862935 129.79561611 -98.90346988 134.82215712 -112.28466797 150.2746582 Z " fill="#ffffff" transform="translate(142.28466796875,54.725341796875)"/>
    <path d="M0 0 C7.36856791 4.64269566 13.36185196 10.15404492 16.3125 18.45703125 C16.725 19.57078125 17.1375 20.68453125 17.5625 21.83203125 C19.41648933 30.79297968 18.72581775 39.64404769 14.0234375 47.65234375 C8.50656646 55.41136559 1.75920066 61.31770209 -7.6875 63.45703125 C-19.31462284 64.81362595 -29.4388832 63.74583851 -38.9375 56.45703125 C-45.04566917 50.74533553 -49.17082882 42.15735427 -49.92578125 33.828125 C-50.18072654 23.75107698 -47.88835023 15.15621449 -41.453125 7.2421875 C-31.02111298 -3.30522288 -13.52487024 -6.46543628 0 0 Z M-31.5625 17.33203125 C-35.46908591 23.07701052 -36.61572887 28.61134331 -35.6875 35.45703125 C-33.6233656 42.00127553 -29.84644061 46.07281099 -23.875 49.49609375 C-18.22658224 52.11531973 -13.46501022 51.4961525 -7.6875 49.45703125 C-1.88962639 46.85023536 0.87477898 42.71828684 3.4296875 37.0078125 C5.25108524 31.74510134 4.99142066 27.47755345 2.75 22.33203125 C-0.24212207 16.92278567 -4.97527613 12.81922909 -10.6875 10.45703125 C-18.9082407 9.25467802 -25.92690021 11.08850961 -31.5625 17.33203125 Z " fill="#ffffff" transform="translate(380.6875,209.54296875)"/>
    <path d="M0 0 C8.11912877 5.36120249 13.35243032 13.15702656 15.63671875 22.64453125 C17.06347114 31.89540962 15.34809213 41.05821602 10.046875 48.8828125 C4.71016545 55.1338534 -1.69686831 60.52709664 -10 62 C-21.90395445 62.75482455 -31.61565838 62.53405907 -41.3125 54.8125 C-48.60288238 47.93450288 -51.97941843 39.16506066 -52.375 29.25 C-52.18325863 19.66293143 -48.79632508 10.85633678 -42 4 C-30.12542978 -5.57214009 -13.54674244 -7.56897355 0 0 Z M-34.41015625 16.62890625 C-38.26983529 22.14866229 -38.67849864 27.47672023 -38 34 C-36.2140664 40.12166398 -32.42764677 44.70694158 -27 48 C-21.22871836 50.52091299 -16.24512674 50.25750606 -10.36328125 48.171875 C-5.07236773 45.54828152 -1.42353688 41.55623192 1 36.1875 C2.89485745 30.12631002 2.16456216 24.28599238 -0.6875 18.6875 C-4.71544617 14.00637337 -9.18158958 9.62537745 -15.48046875 8.59375 C-23.53994573 8.31463391 -29.06012265 10.44895054 -34.41015625 16.62890625 Z " fill="#ffffff" transform="translate(92,211)"/>
    <path d="M0 0 C6.35840813 4.70411299 11.32443159 9.47107493 14 17 C14.4125 18.11375 14.825 19.2275 15.25 20.375 C17.10398933 29.33594843 16.41331775 38.18701644 11.7109375 46.1953125 C6.19406646 53.95433434 -0.55329934 59.86067084 -10 62 C-21.62712284 63.3565947 -31.7513832 62.28880726 -41.25 55 C-47.26743642 49.37314769 -51.51868059 40.79434518 -52.203125 32.5546875 C-52.38906705 21.92500038 -49.95426794 13.21295897 -43 5 C-32.08590061 -5.54569098 -13.08803374 -8.24634559 0 0 Z M-33.875 15.875 C-37.78158591 21.61997927 -38.92822887 27.15431206 -38 34 C-35.9358656 40.54424428 -32.15894061 44.61577974 -26.1875 48.0390625 C-20.53908224 50.65828848 -15.77751022 50.03912125 -10 48 C-4.20212639 45.39320411 -1.43772102 41.26125559 1.1171875 35.55078125 C2.93858524 30.28807009 2.67892066 26.0205222 0.4375 20.875 C-2.55462207 15.46575442 -7.28777613 11.36219784 -13 9 C-21.2207407 7.79764677 -28.23940021 9.63147836 -33.875 15.875 Z " fill="#ffffff" transform="translate(480,211)"/>
    <path d="M0 0 C9.43169148 5.90478146 15.38737207 13.11170158 17.91015625 24.0546875 C19.44797026 33.28157153 17.63887117 42.52982303 12.35546875 50.328125 C7.0187592 56.5791659 0.61172544 61.97240914 -7.69140625 63.4453125 C-19.53085903 64.19604703 -29.18314952 63.93335566 -38.94140625 56.4453125 C-45.04957542 50.73361678 -49.17473507 42.14563552 -49.9296875 33.81640625 C-50.20140188 23.07653768 -47.55175188 14.67433644 -40.61328125 6.38671875 C-30.57089191 -3.75772739 -12.82036308 -6.1831768 0 0 Z M-30.484375 16.38671875 C-35.28454371 22.57791023 -36.51269911 27.64881404 -35.69140625 35.4453125 C-33.70660265 42.00083524 -29.82073098 46.07807031 -23.87890625 49.484375 C-18.22198017 52.10754637 -13.49240828 51.40497873 -7.69140625 49.4453125 C-2.14530298 46.7245826 0.54739266 42.80270266 3.30859375 37.4453125 C5.15409898 31.9087968 4.6630301 26.77631865 2.4921875 21.4375 C-0.40995338 16.55270841 -5.44234713 12.57303818 -10.69140625 10.4453125 C-18.34533686 9.32586006 -25.12340837 10.58192482 -30.484375 16.38671875 Z " fill="#ffffff" transform="translate(283.69140625,209.5546875)"/>
    <path d="M0 0 C8.12094936 5.3539064 13.35353514 13.16161527 15.63671875 22.64453125 C17.06347114 31.89540962 15.34809213 41.05821602 10.046875 48.8828125 C4.71016545 55.1338534 -1.69686831 60.52709664 -10 62 C-21.90395445 62.75482455 -31.61565838 62.53405907 -41.3125 54.8125 C-48.60288238 47.93450288 -51.97941843 39.16506066 -52.375 29.25 C-52.15560667 18.9127026 -48.26207245 10.335874 -41 3 C-29.63884492 -6.14707171 -12.68429913 -6.98728215 0 0 Z M-34.41015625 16.62890625 C-38.26983529 22.14866229 -38.67849864 27.47672023 -38 34 C-36.2140664 40.12166398 -32.42764677 44.70694158 -27 48 C-21.22871836 50.52091299 -16.24512674 50.25750606 -10.36328125 48.171875 C-5.07236773 45.54828152 -1.42353688 41.55623192 1 36.1875 C2.89485745 30.12631002 2.16456216 24.28599238 -0.6875 18.6875 C-4.71544617 14.00637337 -9.18158958 9.62537745 -15.48046875 8.59375 C-23.53994573 8.31463391 -29.06012265 10.44895054 -34.41015625 16.62890625 Z " fill="#ffffff" transform="translate(189,211)"/>
</svg>
