<?xml version="1.0" encoding="UTF-8"?>
<svg version="1.1" xmlns="http://www.w3.org/2000/svg" width="200" height="200">
<path d="M0 0 C4.3796786 0.06468893 7.78126766 1.39658994 11.63409138 3.38898945 C12.31667977 3.7258076 12.99926816 4.06262575 13.70254105 4.4096505 C15.97258272 5.53462418 18.23050911 6.68197544 20.48911762 7.82970905 C22.12020048 8.64392228 23.75197916 9.45674287 25.38439655 10.26827717 C29.80459227 12.47083246 34.21457893 14.69314466 38.62282681 16.91949582 C43.23914215 19.2471087 47.86406781 21.55749014 52.4879427 23.87003803 C60.24799324 27.75422069 68.0018901 31.650459 75.75181293 35.55480671 C84.71468106 40.07014365 93.68505802 44.57024792 102.66005832 49.06141692 C112.21544457 53.84304532 121.76621478 58.6338301 131.31513667 63.42835307 C134.06789679 64.80989805 136.82140911 66.18993441 139.5750494 67.56972408 C143.89784814 69.73651732 148.21744545 71.90956668 152.53462505 74.087533 C154.12070092 74.88655598 155.70779759 75.68355631 157.29597187 76.47840023 C159.46058957 77.56220973 161.62137276 78.65330741 163.78130817 79.74641132 C164.41301011 80.06062151 165.04471204 80.37483169 165.69555646 80.6985634 C168.68303487 82.2204267 171.28514111 83.60445356 173.39024067 86.25817585 C173.78867817 88.19567585 173.78867817 88.19567585 173.76524067 90.25817585 C173.77297504 90.93880085 173.78070942 91.61942585 173.78867817 92.32067585 C173.2549538 94.9160414 172.42264348 95.53767418 170.39024067 97.25817585 C168.20285856 98.4975383 166.02906014 99.65190271 163.78130817 100.76994038 C163.10651973 101.1114385 162.43173129 101.45293662 161.73649472 101.80478317 C159.47328776 102.94822884 157.20586645 104.08304712 154.93833637 105.21789265 C153.31519079 106.03559037 151.69228705 106.85376832 150.06960773 107.67239094 C145.65919067 109.8951381 141.24482934 112.10993695 136.82928205 114.32247233 C134.07056736 115.70511647 131.31261315 117.08926569 128.55490398 118.47391415 C118.93341533 123.30453131 109.30839958 128.1280464 99.68052387 132.94591999 C90.70732911 137.43645282 81.74254423 141.94346359 72.78141052 146.45800942 C65.08674239 150.33349946 57.38596444 154.19665615 49.68040818 158.05045158 C45.07869589 160.35222827 40.47969169 162.65906078 35.88690853 164.97861004 C31.56586205 167.160457 27.23742195 169.32686793 22.9028616 171.48173618 C21.31504187 172.27435308 19.72993364 173.07242928 18.1478281 173.87639141 C15.98369841 174.97504777 13.81055733 176.05340137 11.63409138 177.12736225 C11.01354305 177.4482646 10.39299472 177.76916695 9.7536419 178.09979361 C5.02904063 180.39119003 1.52288535 180.64126942 -3.60975933 180.25817585 C-5.81882115 178.83297468 -6.38132112 177.91429002 -7.23395061 175.46539021 C-7.69457259 172.76004732 -7.29983239 170.86607737 -6.68519878 168.19274616 C-6.457785 167.1835915 -6.23037121 166.17443684 -5.99606609 165.13470173 C-5.74096767 164.04622944 -5.48586926 162.95775715 -5.22304058 161.83630085 C-4.96475979 160.70351704 -4.706479 159.57073322 -4.44037151 158.40362263 C-3.60945346 154.76980839 -2.7658414 151.13906861 -1.92225933 147.50817585 C-1.37263722 145.10861799 -0.82380047 142.7088801 -0.27577496 140.3089571 C1.02636167 134.62050837 2.35274728 128.93810595 3.6904726 123.25793171 C4.32193609 120.55098296 4.93320999 117.84049377 5.53721333 115.12731647 C5.86917116 113.68643175 6.20163934 112.24566443 6.53477192 110.80505085 C6.80265522 109.61234577 7.07053852 108.41964069 7.3465395 107.19079304 C8.53972494 103.83815127 9.51524485 102.34866238 12.39024067 100.25817585 C15.29551411 99.51623249 15.29551411 99.51623249 18.74961567 99.1683321 C19.39093433 99.09874287 20.032253 99.02915363 20.69300556 98.95745564 C22.84070711 98.72856855 24.99005672 98.52481171 27.14024067 98.32067585 C28.6614071 98.16305004 30.18240043 98.00374603 31.70322895 97.84289265 C35.05726569 97.49145323 38.41219995 97.15118497 41.76817036 96.81872272 C49.01189752 96.10011818 56.25158538 95.3430816 63.49155903 94.58775043 C68.87873296 94.02588362 74.26619727 93.46766724 79.65488911 92.92052937 C80.66284534 92.81738422 81.67080158 92.71423908 82.70930195 92.60796833 C84.60585705 92.41396669 86.50259702 92.22176076 88.39954853 92.03167439 C92.44715791 91.61551789 96.41717793 91.1711284 100.39024067 90.25817585 C100.39024067 89.92817585 100.39024067 89.59817585 100.39024067 89.25817585 C90.47431753 87.85539393 80.5640654 86.72704152 70.59244442 85.8114748 C68.25005723 85.59585368 65.90814749 85.37557716 63.56631184 85.15404987 C56.92141582 84.52587737 50.27607348 83.90273043 43.62974262 83.28991413 C39.53342338 82.91189084 35.43789767 82.52610419 31.3427763 82.13532734 C29.79172608 81.98885789 28.240394 81.84534116 26.68878841 81.7048769 C24.53032455 81.50925853 22.3730079 81.303789 20.21568012 81.09606647 C18.99073338 80.98218586 17.76578663 80.86830524 16.50372028 80.7509737 C13.61541324 80.2938159 11.74324078 79.97236358 9.39024067 78.25817585 C8.45240498 76.33294392 8.45240498 76.33294392 7.83408833 73.94665241 C7.59506794 73.0466048 7.35604755 72.1465572 7.10978413 71.21923542 C6.87233479 70.24208576 6.63488544 69.2649361 6.39024067 68.25817585 C6.14263996 67.26201252 5.89503925 66.26584919 5.63993549 65.23949909 C4.83208572 61.91240905 4.05666515 58.57906091 3.28867817 55.24255085 C2.86578007 53.42065235 2.86578007 53.42065235 2.43433857 51.56194782 C1.69258142 48.3624401 0.95380413 45.16226294 0.21622944 41.96178913 C-0.23589723 40.00324666 -0.69001951 38.04517839 -1.14491558 36.08727741 C-2.02339514 32.3062025 -2.89915766 28.52451001 -3.77382183 24.74255085 C-4.04360851 23.57995747 -4.3133952 22.41736408 -4.59135723 21.2195406 C-4.8418684 20.13110859 -5.09237957 19.04267658 -5.35048199 17.92126179 C-5.67999355 16.49423939 -5.67999355 16.49423939 -6.01616192 15.03838825 C-7.80537675 6.6583024 -7.80537675 6.6583024 -6.23475933 3.44567585 C-3.88133088 0.27759909 -3.88133088 0.27759909 0 0 Z " fill="#000000" transform="translate(16.60975933074951,9.74182415008545)"/>
</svg>
